<svg width="159" height="466" viewBox="0 0 159 466" fill="none" xmlns="http://www.w3.org/2000/svg">
<path d="M107.817 258.804H51.1889V248.482H107.817V258.804Z" fill="#FFE786"/>
<path d="M107.817 370.666H51.1889V360.345H107.817V370.666Z" fill="#FFE786"/>
<path fill-rule="evenodd" clip-rule="evenodd" d="M107.887 362.367H51.1889C51.0029 362.367 50.8169 362.344 50.631 362.297C19.3876 353.65 0 333.425 0 309.574C0 285.653 19.3876 265.499 50.631 256.851C50.8169 256.804 51.0029 256.781 51.1889 256.781H107.887C108.073 256.781 108.259 256.804 108.445 256.851C139.619 265.499 159.006 285.653 159.006 309.574C159.006 333.495 139.619 353.65 108.445 362.297C108.259 362.344 108.073 362.367 107.887 362.367ZM51.4678 358.252H107.608C136.759 350.163 154.892 331.472 154.892 309.574C154.892 287.676 136.759 268.986 107.608 260.896H51.4678C22.2469 268.986 4.11463 287.676 4.11463 309.574C4.11463 331.472 22.2469 350.163 51.4678 358.252Z" fill="#FFE786"/>
<path fill-rule="evenodd" clip-rule="evenodd" d="M100.076 361.67H58.93C58.744 361.67 58.5813 361.646 58.4418 361.6C35.9159 353.022 21.8983 333.076 21.8983 309.574C21.8983 286.072 35.9159 266.126 58.4418 257.548C58.5813 257.502 58.744 257.479 58.93 257.479H100.076C100.262 257.479 100.425 257.502 100.565 257.548C123.09 266.126 137.108 286.072 137.108 309.574C137.108 333.076 123.09 353.022 100.565 361.6C100.425 361.646 100.262 361.67 100.076 361.67ZM59.2089 358.95H99.8671C121.138 350.72 134.388 331.821 134.388 309.574C134.388 287.327 121.138 268.428 99.8671 260.198H59.2089C37.8686 268.428 24.6181 287.257 24.6181 309.574C24.6181 331.821 37.8686 350.72 59.2089 358.95Z" fill="#FFE786"/>
<path fill-rule="evenodd" clip-rule="evenodd" d="M92.3353 361.67H66.6711C66.4386 361.67 66.2061 361.6 65.9737 361.46C51.8863 352.882 43.0991 332.937 43.1688 309.574C43.1688 286.142 51.8863 266.266 65.9737 257.688C66.2061 257.548 66.4386 257.479 66.6711 257.479H92.3353C92.5677 257.479 92.8002 257.548 93.0327 257.688C107.12 266.266 115.907 286.142 115.907 309.574C115.907 333.007 107.12 352.882 93.0327 361.46C92.8002 361.6 92.5677 361.67 92.3353 361.67ZM67.0895 358.95H91.9168C105.028 350.72 113.187 331.891 113.187 309.574C113.187 287.327 105.028 268.428 91.9168 260.198H67.0895C53.9785 268.428 45.8887 287.257 45.8887 309.574C45.8887 331.821 53.9785 350.72 67.0895 358.95Z" fill="#FFE786"/>
<path fill-rule="evenodd" clip-rule="evenodd" d="M84.5942 361.67H74.4819C73.9937 361.67 73.5753 361.46 73.2963 361.042C61.2314 342.282 61.2314 276.866 73.2963 258.106C73.5753 257.688 73.9937 257.479 74.4819 257.479H84.5942C85.0126 257.479 85.4311 257.688 85.71 258.106C97.8447 276.866 97.8447 342.282 85.71 361.042C85.4311 361.46 85.0126 361.67 84.5942 361.67ZM75.2491 358.95H83.827C94.7762 340.608 94.7762 278.54 83.827 260.198H75.2491C64.3 278.54 64.3 340.608 75.2491 358.95Z" fill="#FFE786"/>
<path d="M78.6662 413.765C78.6662 413.765 78.1781 414.184 77.6899 415.23C77.132 416.276 76.574 417.949 76.0161 419.972C75.7372 420.948 75.6674 422.134 75.3884 423.25C75.249 424.505 74.9003 425.691 74.8305 427.016C74.6213 429.666 74.2029 432.455 74.0634 435.245C73.7845 440.894 73.645 446.543 73.7844 450.727C73.8542 454.981 73.8542 457.771 73.8542 457.771L73.4357 457.841C73.4357 457.841 73.366 454.981 73.2963 450.727C73.1568 446.543 73.2265 440.894 73.4357 435.245C73.5055 432.386 73.9239 429.596 74.1331 426.946C74.2029 425.621 74.4818 424.366 74.691 423.18C74.9003 421.925 75.0398 420.809 75.3187 419.763C75.8069 417.671 76.3648 415.997 76.9925 414.881C77.2017 414.253 77.6201 413.835 77.8293 413.486C78.0386 413.207 78.178 413.137 78.178 413.137L78.6662 413.765Z" fill="#FFE786"/>
<path d="M79.0149 413.695C79.0149 413.695 78.9452 413.835 78.8057 414.114C78.6662 414.463 78.3175 414.881 78.1781 415.439C77.8991 416.694 77.4807 418.368 76.9925 420.46C76.6438 421.436 76.7135 422.622 76.5043 423.877C76.4113 425.086 76.2951 426.365 76.1556 427.713C76.0161 429.061 75.8766 430.456 75.7372 431.897C75.5977 433.292 75.3187 434.757 75.3885 436.152C75.3187 447.728 75.1793 459.305 75.1793 459.305H74.6911C74.6911 459.305 74.7608 447.728 74.7608 436.152C74.6911 434.687 74.97 433.292 75.0398 431.828C75.1792 430.433 75.3188 429.038 75.4582 427.643C75.5512 426.295 75.6675 424.993 75.8069 423.738C75.9464 422.552 75.8767 421.367 76.2254 420.251C76.7833 418.089 77.2017 416.345 77.4807 415.09C77.6201 414.393 77.9688 414.044 78.1083 413.695C78.2478 413.416 78.3175 413.254 78.3175 413.207L79.0149 413.695Z" fill="#FFE786"/>
<path d="M79.294 413.626C79.294 413.626 79.0151 414.323 78.7361 415.509C78.5269 416.764 78.1781 418.577 77.8294 420.739C77.4807 422.901 77.4808 425.481 77.2018 428.271C77.0623 430.991 76.7834 433.92 76.6439 436.849C76.5742 448.705 76.5044 460.491 76.5044 460.491H76.0162C76.0162 460.491 76.0162 448.635 76.0162 436.849C76.086 433.92 76.3649 430.921 76.5044 428.201C76.7136 425.412 76.7136 422.831 77.1321 420.6C77.4807 418.368 77.7597 416.555 77.9689 415.23C78.2479 413.974 78.5268 413.277 78.5268 413.277L79.294 413.626Z" fill="#FFE786"/>
<path d="M79.5729 413.486C79.5729 413.486 79.2242 416.555 78.736 421.157C78.3873 423.389 78.5268 426.109 78.457 428.968C78.3873 431.828 78.3176 434.896 78.2478 437.895C78.0386 450.169 77.7596 462.374 77.7596 462.374H77.3412C77.3412 462.374 77.4807 450.169 77.6201 437.895C77.6899 434.826 77.6899 431.758 77.7596 428.829C77.8294 425.969 77.6899 423.319 77.9688 421.018C78.457 416.415 78.736 413.416 78.736 413.416L79.5729 413.486Z" fill="#FFE786"/>
<path d="M79.7821 413.486L79.0848 464.396H78.6663L79.015 413.416L79.7821 413.486Z" fill="#FFE786"/>
<path d="M80.061 413.416L80.4097 466H79.9215L79.2242 413.486L80.061 413.416Z" fill="#FFE786"/>
<path d="M80.2703 413.416C80.2703 413.416 80.619 416.415 81.0375 421.018C81.3862 423.319 81.1769 425.969 81.3164 428.829C81.3164 431.758 81.3862 434.826 81.3862 437.895C81.5257 450.169 81.6651 462.374 81.6651 462.374H81.2467C81.2467 462.374 81.0375 450.169 80.7585 437.895C80.6888 434.896 80.619 431.828 80.619 428.968C80.4795 426.109 80.619 423.389 80.2703 421.157C79.7821 416.555 79.5032 413.486 79.5032 413.486L80.2703 413.416Z" fill="#FFE786"/>
<path d="M80.4795 413.277C80.4795 413.277 80.7585 413.974 81.0374 415.23C81.2467 416.555 81.5953 418.368 81.944 420.6C82.2927 422.831 82.2927 425.412 82.502 428.201C82.6414 430.921 82.9204 433.92 82.9901 436.849C82.9901 448.635 82.9901 460.491 82.9901 460.491H82.5717C82.5717 460.491 82.4322 448.705 82.3625 436.849C82.2927 433.92 82.0138 430.991 81.8046 428.271C81.5953 425.481 81.5256 422.901 81.1769 420.739C80.8282 418.577 80.5493 416.764 80.34 415.509C79.9913 414.323 79.7124 413.626 79.7124 413.626L80.4795 413.277Z" fill="#FFE786"/>
<path d="M80.6887 413.207C80.6887 413.254 80.7817 413.416 80.9677 413.695C81.0374 414.044 81.3861 414.393 81.5256 415.09C81.8046 416.345 82.2928 418.089 82.7809 420.251C83.1296 421.367 83.0599 422.552 83.2691 423.738C83.3621 424.993 83.4783 426.295 83.6178 427.643C83.7108 429.038 83.827 430.433 83.9665 431.828C84.0363 433.292 84.3152 434.687 84.2454 436.152C84.3152 447.728 84.3152 459.305 84.3152 459.305H83.827C83.827 459.305 83.7573 447.728 83.6178 436.152C83.6876 434.757 83.4086 433.292 83.3388 431.897C83.1994 430.456 83.0599 429.061 82.9204 427.713C82.7809 426.365 82.6414 425.086 82.502 423.877C82.3625 422.622 82.3625 421.436 82.0138 420.46C81.5256 418.368 81.1072 416.694 80.8282 415.439C80.6888 414.881 80.34 414.463 80.2703 414.114C80.0843 413.835 79.9913 413.695 79.9913 413.695L80.6887 413.207Z" fill="#FFE786"/>
<path d="M80.898 413.137C80.898 413.137 81.0374 413.207 81.2467 413.486C81.3861 413.835 81.8046 414.253 82.0835 414.881C82.6415 415.997 83.1994 417.671 83.6875 419.763C84.0362 420.809 84.106 421.925 84.3849 423.18C84.5244 424.366 84.8731 425.621 84.9429 426.946C85.0823 429.596 85.5008 432.386 85.5705 435.245C85.7797 440.894 85.9192 446.543 85.71 450.727C85.6403 454.981 85.6403 457.841 85.6403 457.841L85.1521 457.771C85.1521 457.771 85.1521 454.981 85.2218 450.727C85.3613 446.543 85.2218 440.894 84.9429 435.245C84.8731 432.455 84.4547 429.666 84.2455 427.016C84.106 425.691 83.827 424.505 83.6178 423.25C83.4086 422.134 83.2691 420.948 82.9902 419.972C82.4322 417.949 81.8743 416.276 81.3164 415.23C80.8282 414.184 80.4098 413.765 80.3401 413.765L80.898 413.137Z" fill="#FFE786"/>
<path d="M60.3945 249.528C60.3945 238.998 68.9725 230.489 79.5031 230.489C90.0338 230.489 98.6118 238.998 98.6118 249.528H60.3945Z" fill="#FFE786"/>
<path d="M86.3376 227.281C86.3376 231.047 83.2691 234.116 79.5031 234.116C75.7372 234.116 72.6686 231.047 72.6686 227.281C72.6686 223.515 75.7372 220.447 79.5031 220.447C83.2691 220.447 86.3376 223.515 86.3376 227.281Z" fill="#FFE786"/>
<path d="M78.1084 0.557908V220.447H80.9677V0C79.9913 0.209219 79.015 0.418429 78.1084 0.557908Z" fill="url(#paint0_linear_22_10489)"/>
<path d="M93.6602 377.222H65.346C61.3011 377.222 58.0233 373.874 58.0233 369.829H60.7432C60.7432 372.409 62.8353 374.432 65.346 374.432H93.6602C96.1709 374.432 98.2631 372.409 98.2631 369.829H100.983C100.983 373.874 97.7051 377.222 93.6602 377.222Z" fill="#FFE786"/>
<path d="M84.0362 379.732C84.0362 382.243 82.0138 384.265 79.5032 384.265C76.9925 384.265 74.9701 382.243 74.9701 379.732C74.9701 377.222 76.9925 375.199 79.5032 375.199C82.0138 375.199 84.0362 377.222 84.0362 379.732Z" fill="#FFE786"/>
<path d="M84.0362 412.789C84.0362 415.299 82.0138 417.322 79.5032 417.322C76.9925 417.322 74.9701 415.299 74.9701 412.789C74.9701 410.278 76.9925 408.256 79.5032 408.256C82.0138 408.256 84.0362 410.278 84.0362 412.789Z" fill="#FFE786"/>
<path d="M80.8979 409.581H78.1781V379.732H80.8979V409.581Z" fill="#FFE786"/>
<defs>
<linearGradient id="paint0_linear_22_10489" x1="79.538" y1="0" x2="79.538" y2="220.447" gradientUnits="userSpaceOnUse">
<stop stop-color="#994C00"/>
<stop offset="1" stop-color="#FFE786"/>
</linearGradient>
</defs>
</svg>
