<svg width="323" height="153" viewBox="0 0 323 153" fill="none" xmlns="http://www.w3.org/2000/svg">
<g opacity="0.3">
<path d="M103.804 69.6314C95.0038 43.1314 119.804 7.33138 156.804 11.8314C168.004 13.1314 177.804 18.2314 185.304 25.6314C193.904 10.4314 211.104 1.23135 229.504 3.43135C247.604 5.63135 261.704 18.3314 266.704 34.6314C266.804 34.6314 266.904 34.6314 266.904 34.7314C268.104 34.6647 269.337 34.6647 270.604 34.7314C270.604 34.7314 270.604 34.6314 270.704 34.7314C271.904 34.8314 273.004 34.8315 274.204 35.0315C302.604 38.3315 322.804 64.1314 319.304 92.4314C314.904 129.531 273.704 149.831 241.604 130.631C239.404 137.731 232.304 142.631 224.604 141.631C218.004 140.831 212.904 136.131 211.304 130.031C191.804 156.131 152.904 155.731 134.004 129.431C110.704 144.231 82.4039 135.931 68.5039 116.131C62.3039 107.031 36.3039 75.9314 3.00391 83.6314C3.00391 83.6314 52.5038 42.1314 103.804 69.6314Z" fill="#FFF9F5"/>
<path d="M166.704 152.031C153.504 150.531 141.704 143.931 133.304 133.431C108.004 147.731 79.5038 137.031 66.1038 117.831C64.9038 116.231 38.4038 78.5315 3.70382 86.6315C2.30382 86.9315 0.903798 86.2315 0.303798 85.0315C-0.296203 83.7315 0.00384629 82.2314 1.10385 81.3314C1.60385 80.9314 52.8038 38.7314 105.204 66.9314C106.704 67.7314 107.304 69.5315 106.504 71.0315C105.704 72.5315 103.804 73.0314 102.404 72.2314C66.4039 52.9314 30.9039 69.2314 14.4039 79.4314C46.1039 79.8314 68.3039 110.431 71.0039 114.331C83.3039 131.831 109.604 141.331 132.404 126.931C133.804 126.031 135.504 126.331 136.504 127.631C144.904 139.431 158.004 146.231 172.504 146.331C186.904 146.531 200.204 139.831 208.804 128.131C209.504 127.231 210.604 126.731 211.804 127.031C213.004 127.231 213.904 128.131 214.204 129.231C215.504 134.331 219.904 138.031 225.004 138.631C231.104 139.331 236.904 135.631 238.704 129.731C239.004 128.831 239.704 128.131 240.504 127.831C241.404 127.531 242.404 127.531 243.204 128.031C257.304 136.531 274.704 137.231 289.504 129.931C304.304 122.631 314.404 108.531 316.304 92.1315C317.904 79.2315 314.404 66.4314 306.304 56.2314C297.604 45.1314 284.704 38.7314 270.804 37.7314L270.704 34.7314L271.204 31.7314C286.804 32.8314 301.304 40.1315 311.104 52.5315C320.104 64.0315 324.104 78.3314 322.304 92.8314C320.104 111.231 308.804 127.131 292.204 135.331C276.504 143.031 258.404 142.831 243.104 134.931C239.404 141.631 232.104 145.531 224.304 144.631C218.704 144.131 213.404 140.631 210.404 135.731C200.704 146.531 187.104 152.531 172.404 152.431C170.471 152.431 168.57 152.298 166.704 152.031Z" fill="#E30F00"/>
<path d="M266.604 37.7314C265.104 37.5314 263.904 36.3314 263.904 34.8314C263.804 33.1314 265.104 31.7315 266.804 31.6315C268.104 31.6315 269.304 31.6315 270.604 31.6315C272.304 31.7315 273.604 33.1314 273.604 34.7314C273.604 36.4314 272.204 37.7314 270.504 37.7314C269.304 37.7314 268.204 37.7314 267.004 37.7314C266.871 37.7314 266.737 37.7314 266.604 37.7314Z" fill="#E30F00"/>
<path d="M130.704 95.8314C127.604 95.4314 124.504 94.5314 121.704 93.1314C111.304 88.0314 104.204 80.2315 100.904 70.5315C96.4039 56.8315 100.004 40.3315 110.504 27.5315C122.004 13.4315 139.204 6.8314 157.104 8.8314C167.404 10.0314 176.804 14.2314 184.704 20.9314C194.604 6.23138 211.904 -1.7686 229.804 0.3314C248.504 2.6314 264.104 15.7314 269.604 33.8314C270.104 35.4314 269.204 37.0315 267.604 37.5315C266.004 38.0315 264.304 37.1315 263.804 35.5315C259.004 19.8315 245.404 8.33138 229.104 6.43138C212.404 4.43138 196.204 12.5314 188.004 27.1314C187.504 27.9314 186.704 28.4314 185.704 28.6314C184.804 28.7314 183.904 28.4314 183.204 27.7314C175.804 20.5314 166.504 16.2314 156.304 14.8314C140.304 12.9314 125.304 18.9314 115.204 31.4314C106.004 42.6314 102.704 56.9314 106.704 68.6314C109.404 76.8314 115.504 83.3314 124.304 87.7314C129.604 90.2314 135.604 90.6314 141.104 88.7314C146.604 86.8314 151.004 82.8314 153.604 77.6314C156.804 70.8314 154.004 62.5314 147.204 59.2314C143.204 57.2314 138.204 58.9315 136.204 63.0315C135.704 64.1315 135.604 65.3315 136.004 66.5315C136.404 67.6315 137.204 68.5314 138.304 69.1314C139.804 69.8314 140.404 71.6314 139.704 73.1314C139.004 74.6314 137.204 75.2315 135.704 74.5315C133.104 73.3315 131.204 71.2315 130.304 68.5315C129.404 65.8315 129.504 62.9314 130.804 60.3314C134.204 53.3314 142.804 50.4314 149.904 53.7314C159.604 58.5314 163.704 70.4314 159.004 80.2314C155.804 86.9314 150.104 91.9314 143.104 94.4314C139.004 95.8314 134.804 96.2314 130.704 95.8314Z" fill="#E30F00"/>
<path d="M251.404 104.531C251.271 104.531 251.137 104.531 251.004 104.531C242.804 103.331 235.604 99.1314 230.704 92.6314C225.704 86.0314 223.604 77.9314 224.704 69.8314C227.704 48.5314 245.304 32.5314 266.604 31.6314C266.937 31.5648 267.237 31.5648 267.504 31.6314C268.571 31.5648 269.67 31.5648 270.804 31.6314V31.7314C270.804 31.7314 270.837 31.7314 270.904 31.7314C272.104 31.7314 273.304 31.8314 274.604 32.0314C276.304 32.2314 277.504 33.7314 277.304 35.3314C277.004 37.1314 275.404 38.2314 273.604 38.0314C272.604 37.8314 271.604 37.7314 270.604 37.7314C270.537 37.7314 270.437 37.7314 270.304 37.7314C269.237 37.6647 268.204 37.6647 267.204 37.7314C266.904 37.7314 266.704 37.7314 266.504 37.7314C266.437 37.7314 266.404 37.6981 266.404 37.6314C248.504 38.4314 233.304 52.3314 230.704 70.6314C228.804 84.1314 238.304 96.6314 251.804 98.5314C255.804 99.0314 260.104 98.0313 263.404 95.4313C266.704 92.9313 268.904 89.3314 269.404 85.1314C269.804 82.6314 269.104 80.1314 267.604 78.1314C266.104 76.1314 263.804 74.8313 261.304 74.4313C258.304 74.0313 255.604 76.1314 255.204 79.0314C255.004 80.7314 253.304 81.8314 251.804 81.6314C250.104 81.3314 249.004 79.8314 249.204 78.2314C250.104 72.0314 255.804 67.7313 262.004 68.4313C262.004 68.4313 262.037 68.4313 262.104 68.4313C266.304 69.0313 269.904 71.1313 272.404 74.4313C274.904 77.8313 276.004 81.8314 275.404 86.0314C274.604 91.7314 271.704 96.8314 267.004 100.331C262.504 103.731 257.004 105.231 251.404 104.531Z" fill="#E30F00"/>
</g>
</svg>
