<svg width="183" height="540" viewBox="0 0 183 540" fill="none" xmlns="http://www.w3.org/2000/svg">
<path d="M89.6554 0V283.703H92.0749V0H89.6554Z" fill="url(#paint0_linear_22_6661)"/>
<path d="M58.2012 532.125C57.7613 532.067 57.3066 532.008 56.8374 531.95C59.3009 514.617 61.7792 497.284 64.272 479.951C64.624 480.01 64.9759 480.054 65.3279 480.083C62.9523 497.445 60.5768 514.793 58.2012 532.125Z" fill="#DE0523"/>
<path d="M60.5327 537.448C60.0635 537.39 59.5942 537.331 59.125 537.273C61.5885 518.268 64.0668 499.264 66.5596 480.259C66.9116 480.318 67.2635 480.362 67.6154 480.391C65.2398 499.396 62.879 518.415 60.5327 537.448Z" fill="#DE0523"/>
<path d="M63.2603 539.824C62.7911 539.765 62.3218 539.707 61.8525 539.648C64.1694 519.94 66.4864 500.231 68.8033 480.523C69.1845 480.582 69.5511 480.626 69.9031 480.655C67.7035 500.363 65.4892 520.086 63.2603 539.824Z" fill="#DE0523"/>
<path d="M66.6036 536.701C66.1637 536.671 65.7091 536.627 65.2399 536.569C67.2048 517.975 69.1698 499.381 71.1347 480.787C71.4867 480.816 71.8386 480.86 72.1905 480.919C70.3429 499.513 68.4806 518.107 66.6036 536.701Z" fill="#DE0523"/>
<path d="M69.3751 539.516C68.9059 539.487 68.4367 539.443 67.9674 539.384C69.7857 519.94 71.6041 500.481 73.4224 481.007C73.7743 481.066 74.1263 481.11 74.4782 481.139C72.7772 500.583 71.0761 520.042 69.3751 539.516Z" fill="#DE0523"/>
<path d="M72.8945 532.521C72.4546 532.492 72 532.463 71.5308 532.433C72.9092 515.365 74.3022 498.296 75.71 481.227C76.0619 481.256 76.4139 481.286 76.7658 481.315C75.4754 498.384 74.1849 515.453 72.8945 532.521Z" fill="#DE0523"/>
<path d="M75.49 538.196C75.0207 538.167 74.5515 538.138 74.0823 538.108C75.3727 519.221 76.6778 500.319 77.9976 481.403C78.3495 481.432 78.7014 481.447 79.0533 481.447C77.8509 500.363 76.6631 519.28 75.49 538.196Z" fill="#DE0523"/>
<path d="M78.6574 534.105C78.2175 534.076 77.7628 534.046 77.2936 534.017C78.2907 516.538 79.2879 499.044 80.285 481.535C80.637 481.564 81.0036 481.579 81.3848 481.579C80.4757 499.088 79.5665 516.596 78.6574 534.105Z" fill="#DE0523"/>
<path d="M81.7809 529.618C81.3409 529.618 80.8864 529.603 80.4171 529.574C81.1503 513.59 81.8688 497.621 82.5727 481.667C82.9539 481.667 83.3205 481.681 83.6725 481.711C83.0273 497.694 82.3967 513.663 81.7809 529.618Z" fill="#DE0523"/>
<path d="M84.5522 534.325C84.083 534.325 83.6138 534.325 83.1445 534.325C83.7311 516.787 84.3176 499.264 84.9042 481.755C85.2561 481.755 85.6081 481.769 85.96 481.799C85.4908 499.307 85.0215 516.816 84.5522 534.325Z" fill="#DE0523"/>
<path d="M87.4997 532.037C87.0305 532.037 86.5759 532.023 86.136 531.993C86.4879 515.277 86.8398 498.545 87.1917 481.799C87.5437 481.799 87.8956 481.813 88.2476 481.843C88.0129 498.56 87.7637 515.291 87.4997 532.037Z" fill="#DE0523"/>
<path d="M90.4032 538.108C89.934 538.108 89.4647 538.108 88.9955 538.108C89.1421 519.338 89.3034 500.583 89.4794 481.843C89.8313 481.843 90.1979 481.843 90.5792 481.843C90.5205 500.583 90.4619 519.338 90.4032 538.108Z" fill="#DE0523"/>
<path d="M93.3507 535.161C92.8814 535.161 92.4122 535.161 91.9429 535.161C91.8843 517.388 91.8256 499.615 91.767 481.843C92.1482 481.843 92.5148 481.843 92.8668 481.843C93.0134 499.615 93.1747 517.388 93.3507 535.161Z" fill="#DE0523"/>
<path d="M96.3861 539.692C95.9168 539.692 95.4476 539.707 94.9783 539.736C94.6851 520.438 94.3918 501.14 94.0985 481.843C94.4504 481.813 94.8024 481.799 95.1543 481.799C95.5649 501.096 95.9755 520.394 96.3861 539.692Z" fill="#DE0523"/>
<path d="M99.3336 538.24C98.8643 538.24 98.3951 538.255 97.9258 538.284C97.3979 519.456 96.8847 500.627 96.3861 481.799C96.738 481.769 97.09 481.755 97.4419 481.755C98.0871 500.583 98.7177 519.412 99.3336 538.24Z" fill="#DE0523"/>
<path d="M102.281 537.448C101.812 537.478 101.343 537.507 100.873 537.536C100.14 518.913 99.4069 500.305 98.6737 481.711C99.0256 481.681 99.3922 481.667 99.7735 481.667C100.595 500.261 101.431 518.854 102.281 537.448Z" fill="#DE0523"/>
<path d="M104.877 530.674C104.407 530.703 103.953 530.732 103.513 530.762C102.662 514.367 101.812 497.973 100.961 481.579C101.343 481.579 101.709 481.564 102.061 481.535C103 497.929 103.938 514.309 104.877 530.674Z" fill="#DE0523"/>
<path d="M108.22 537.053C107.751 537.082 107.281 537.111 106.812 537.14C105.639 518.576 104.466 500.011 103.293 481.447C103.645 481.447 103.997 481.432 104.349 481.403C105.639 499.938 106.929 518.488 108.22 537.053Z" fill="#DE0523"/>
<path d="M110.772 531.906C110.302 531.935 109.848 531.964 109.408 531.994C108.117 515.101 106.842 498.208 105.58 481.315C105.932 481.286 106.284 481.256 106.636 481.227C108.015 498.12 109.393 515.013 110.772 531.906Z" fill="#DE0523"/>
<path d="M113.323 527.946C112.883 527.976 112.428 528.005 111.959 528.034C110.61 512.402 109.246 496.771 107.868 481.139C108.22 481.11 108.572 481.066 108.924 481.007C110.39 496.639 111.857 512.285 113.323 527.946Z" fill="#DE0523"/>
<path d="M116.358 529.486C115.918 529.545 115.479 529.589 115.039 529.618C113.396 513.37 111.769 497.137 110.156 480.919C110.507 480.86 110.859 480.816 111.211 480.787C112.942 497.035 114.657 513.268 116.358 529.486Z" fill="#DE0523"/>
<path d="M120.494 539.824C120.024 539.883 119.555 539.941 119.086 540C116.857 520.233 114.643 500.451 112.443 480.655C112.795 480.626 113.147 480.582 113.499 480.523C115.845 500.29 118.177 520.057 120.494 539.824Z" fill="#DE0523"/>
<path d="M123.001 535.601C122.532 535.659 122.063 535.718 121.593 535.777C119.306 517.33 117.018 498.868 114.731 480.391C115.083 480.362 115.435 480.318 115.786 480.259C118.191 498.706 120.596 517.154 123.001 535.601Z" fill="#DE0523"/>
<path d="M125.421 531.51C124.981 531.568 124.526 531.627 124.057 531.686C121.711 514.499 119.365 497.299 117.018 480.083C117.37 480.054 117.722 480.01 118.074 479.951C120.538 497.137 122.987 514.323 125.421 531.51Z" fill="#DE0523"/>
<path d="M119.306 481.579C119.262 485.934 63.0844 485.934 63.0404 481.579V467.15H119.306V481.579Z" fill="url(#paint1_linear_22_6661)"/>
<path fill-rule="evenodd" clip-rule="evenodd" d="M91.1951 316.961C83.2766 316.961 76.8538 309.219 76.8538 299.673C76.8538 290.17 83.2766 282.428 91.1951 282.428C99.0697 282.428 105.493 290.17 105.493 299.673C105.493 309.219 99.0697 316.961 91.1951 316.961ZM91.1951 284.539C84.4644 284.539 78.9654 291.314 78.9654 299.673C78.9654 308.031 84.4644 314.85 91.1951 314.85C97.9259 314.85 103.381 308.031 103.381 299.673C103.381 291.314 97.9259 284.539 91.1951 284.539Z" fill="url(#paint2_linear_22_6661)"/>
<path d="M182.346 395.883C182.346 397.027 182.302 398.214 182.258 399.314C182.258 399.71 182.214 400.062 182.214 400.414C182.038 402.76 181.745 405.062 181.334 407.321C181.246 407.717 181.202 408.069 181.114 408.421C180.675 410.752 180.059 413.084 179.355 415.327C179.223 415.723 179.091 416.119 178.959 416.471C178.167 418.803 177.243 421.09 176.187 423.334C176.041 423.715 175.865 424.096 175.659 424.478C174.516 426.853 173.24 429.141 171.788 431.384C171.554 431.766 171.319 432.132 171.084 432.484C169.501 434.86 167.785 437.147 165.937 439.347C165.629 439.743 165.321 440.139 164.969 440.491C162.858 442.925 160.6 445.227 158.195 447.397C157.755 447.779 157.329 448.145 156.919 448.497C154.103 450.961 151.068 453.248 147.857 455.404C147.27 455.785 146.683 456.152 146.097 456.504C141.962 459.099 137.607 461.387 132.987 463.41C132.064 463.762 131.184 464.158 130.26 464.51C118.382 469.217 105.141 471.813 91.1511 471.813C77.2057 471.813 63.9642 469.217 52.1303 464.51C51.2065 464.158 50.2827 463.762 49.3588 463.41C44.7837 461.387 40.3845 459.099 36.2933 456.504C35.7067 456.152 35.1202 455.785 34.5336 455.404C31.3222 453.248 28.2868 450.961 25.4273 448.497C25.0167 448.145 24.5915 447.779 24.1515 447.397C21.732 445.198 19.4884 442.91 17.3768 440.491C17.0248 440.139 16.7023 439.757 16.409 439.347C14.5613 437.147 12.8456 434.86 11.2619 432.484C10.998 432.132 10.778 431.736 10.558 431.384C9.10631 429.141 7.83053 426.853 6.68674 424.478C6.46678 424.082 6.29083 423.73 6.15886 423.334C5.05906 421.09 4.1792 418.803 3.38735 416.471C3.25538 416.119 3.12344 415.723 2.99147 415.327C2.2876 413.084 1.67171 410.752 1.23179 408.421C1.14381 408.069 1.09982 407.717 1.01183 407.321C0.615907 405.033 0.307964 402.746 0.131997 400.414C0.102669 400.062 0.0879622 399.695 0.0879622 399.314C-2.14817e-05 398.214 0 397.027 0 395.883C0 394.739 -2.14817e-05 393.595 0.0879622 392.451C0.0879622 392.07 0.102669 391.704 0.131997 391.352C0.307964 389.02 0.615907 386.733 1.01183 384.445C1.09982 384.093 1.14381 383.697 1.23179 383.345C1.67171 381.014 2.2876 378.682 2.99147 376.438C3.12344 376.043 3.25538 375.691 3.38735 375.295C4.14988 372.948 5.07373 370.661 6.15886 368.432C6.3055 368.051 6.48144 367.684 6.68674 367.332C7.83053 364.913 9.10631 362.669 10.558 360.425C10.778 360.029 10.998 359.634 11.2619 359.282C12.8456 356.906 14.5613 354.618 16.409 352.419C16.7023 352.038 17.0248 351.656 17.3768 351.275C19.4884 348.856 21.732 346.568 24.1515 344.368C24.5915 343.987 25.0167 343.621 25.4273 343.269C28.2868 340.805 31.3222 338.517 34.5336 336.362C35.1202 335.981 35.7067 335.614 36.2933 335.262C40.3992 332.652 44.7691 330.35 49.4029 328.355C50.312 327.974 51.2358 327.607 52.1743 327.256C63.9641 322.592 77.2057 319.953 91.1511 319.953C105.141 319.953 118.382 322.592 130.216 327.256C131.125 327.607 132.034 327.974 132.943 328.355C137.562 330.335 141.962 332.667 146.097 335.262C146.683 335.614 147.27 335.981 147.857 336.362C151.068 338.517 154.103 340.805 156.919 343.269C157.329 343.621 157.755 343.987 158.195 344.368C160.6 346.568 162.858 348.87 164.969 351.275C165.321 351.627 165.629 352.023 165.937 352.419C167.785 354.618 169.501 356.906 171.084 359.282C171.319 359.634 171.554 360.015 171.788 360.425C173.24 362.669 174.516 364.913 175.659 367.332C175.865 367.684 176.041 368.051 176.187 368.432C177.243 370.661 178.167 372.948 178.959 375.295C179.091 375.691 179.223 376.043 179.355 376.438C180.059 378.682 180.675 381.014 181.114 383.345C181.202 383.697 181.246 384.093 181.334 384.445C181.745 386.703 182.038 389.005 182.214 391.352C182.214 391.704 182.258 392.056 182.258 392.451C182.302 393.595 182.346 394.739 182.346 395.883Z" fill="#870415"/>
<path d="M159.339 395.883C159.339 397.027 159.339 398.214 159.295 399.314C159.265 399.695 159.251 400.062 159.251 400.414C159.104 402.76 158.884 405.062 158.591 407.321C158.503 407.717 158.459 408.069 158.415 408.421C158.063 410.752 157.579 413.084 157.051 415.327C156.963 415.708 156.875 416.09 156.787 416.471C156.171 418.817 155.467 421.105 154.675 423.334C154.529 423.715 154.397 424.096 154.279 424.478C153.4 426.853 152.388 429.141 151.332 431.384C151.127 431.766 150.936 432.132 150.76 432.484C149.558 434.86 148.253 437.147 146.845 439.347C146.61 439.757 146.361 440.139 146.097 440.491C144.484 442.925 142.754 445.227 140.906 447.397C140.583 447.779 140.275 448.145 139.982 448.497C137.826 450.961 135.495 453.248 133.031 455.404C132.591 455.785 132.152 456.152 131.712 456.504C128.588 459.099 125.245 461.387 121.725 463.41C121.022 463.792 120.332 464.158 119.658 464.51C110.596 469.217 100.521 471.813 89.8314 471.813C79.1854 471.813 69.1112 469.217 60.0929 464.51C59.389 464.158 58.6852 463.762 57.9813 463.41C54.462 461.387 51.1626 459.099 47.9951 456.504C47.5552 456.152 47.1153 455.785 46.6754 455.404C44.2118 453.248 41.9243 450.961 39.7247 448.497C39.4314 448.145 39.1234 447.779 38.8008 447.397C36.9532 445.198 35.1935 442.91 33.6098 440.491C33.3459 440.139 33.0966 439.757 32.8619 439.347C31.4542 437.147 30.1345 434.86 28.9467 432.484C28.7707 432.132 28.5507 431.736 28.3748 431.384C27.319 429.141 26.3072 426.853 25.4273 424.478C25.31 424.096 25.1781 423.715 25.0314 423.334C24.2396 421.105 23.5357 418.817 22.9198 416.471C22.8318 416.09 22.7438 415.708 22.6558 415.327C22.0839 413.084 21.644 410.752 21.2921 408.421C21.2481 408.069 21.2041 407.717 21.1161 407.321C20.8228 405.062 20.6029 402.76 20.4562 400.414C20.4269 400.062 20.4123 399.695 20.4123 399.314C20.3683 398.214 20.3683 397.027 20.3683 395.883C20.3683 394.739 20.3683 393.595 20.4123 392.451C20.4123 392.07 20.4269 391.704 20.4562 391.352C20.6029 389.005 20.8228 386.703 21.1161 384.445C21.2041 384.093 21.2481 383.697 21.2921 383.345C21.644 381.014 22.0839 378.682 22.6558 376.438C22.7438 376.043 22.8318 375.691 22.9198 375.295C23.5357 372.948 24.2396 370.661 25.0314 368.432C25.1781 368.051 25.31 367.684 25.4273 367.332C26.3072 364.913 27.319 362.669 28.3748 360.425C28.5507 360.029 28.7707 359.634 28.9467 359.282C30.1345 356.906 31.4542 354.618 32.8619 352.419C33.0966 352.038 33.3459 351.656 33.6098 351.275C35.2229 348.87 36.9532 346.568 38.8008 344.368C39.1234 343.987 39.4314 343.621 39.7247 343.269C41.9243 340.805 44.2118 338.517 46.6754 336.362C47.1153 335.981 47.5552 335.614 47.9951 335.262C51.1626 332.652 54.506 330.35 58.0253 328.355C58.6998 327.974 59.4037 327.607 60.1369 327.256C69.1112 322.592 79.2293 319.953 89.8314 319.953C100.477 319.953 110.596 322.592 119.614 327.256C120.288 327.607 120.978 327.974 121.681 328.355C125.201 330.335 128.544 332.667 131.712 335.262C132.152 335.614 132.591 335.981 133.031 336.362C135.495 338.517 137.826 340.805 139.982 343.269C140.275 343.621 140.583 343.987 140.906 344.368C142.754 346.568 144.484 348.87 146.097 351.275C146.361 351.656 146.61 352.038 146.845 352.419C148.253 354.618 149.572 356.906 150.76 359.282C150.936 359.634 151.127 360.015 151.332 360.425C152.388 362.669 153.4 364.913 154.279 367.332C154.397 367.684 154.529 368.051 154.675 368.432C155.467 370.661 156.171 372.948 156.787 375.295C156.875 375.691 156.963 376.043 157.051 376.438C157.579 378.682 158.063 381.014 158.415 383.345C158.459 383.697 158.503 384.093 158.591 384.445C158.884 386.703 159.104 389.005 159.251 391.352C159.251 391.704 159.265 392.07 159.295 392.451C159.339 393.595 159.339 394.739 159.339 395.883Z" fill="#BA041D"/>
<path d="M131.932 395.883C131.932 397.027 131.888 398.214 131.888 399.314C131.858 399.695 131.844 400.062 131.844 400.414C131.756 402.76 131.624 405.062 131.448 407.321C131.404 407.717 131.404 408.069 131.36 408.421C131.14 410.752 130.876 413.084 130.568 415.327C130.509 415.708 130.451 416.09 130.392 416.471C130.04 418.817 129.629 421.105 129.16 423.334C129.101 423.715 129.028 424.096 128.94 424.478C128.412 426.853 127.84 429.141 127.18 431.384C127.092 431.766 126.99 432.132 126.873 432.484C126.169 434.86 125.406 437.147 124.585 439.347C124.438 439.757 124.292 440.139 124.145 440.491C123.207 442.925 122.195 445.227 121.11 447.397C120.934 447.779 120.743 448.145 120.538 448.497C119.306 450.961 117.942 453.248 116.49 455.404C116.227 455.785 115.963 456.152 115.699 456.504C113.88 459.114 111.93 461.416 109.848 463.41C109.437 463.792 109.027 464.158 108.616 464.51C103.337 469.217 97.398 471.813 91.1511 471.813C84.9043 471.813 79.0094 469.217 73.7304 464.51C73.3198 464.158 72.9092 463.792 72.4986 463.41C70.431 461.387 68.4953 459.099 66.6477 456.504C66.3837 456.152 66.1198 455.785 65.8558 455.404C64.4041 453.248 63.0843 450.961 61.8086 448.497C61.6033 448.145 61.4126 447.779 61.2367 447.397C60.1515 445.227 59.1398 442.925 58.2013 440.491C58.0546 440.139 57.908 439.757 57.7613 439.347C56.9402 437.147 56.1776 434.86 55.4737 432.484C55.3564 432.132 55.2391 431.766 55.1218 431.384C54.5059 429.141 53.934 426.853 53.4061 424.478C53.3182 424.096 53.2448 423.715 53.1862 423.334C52.7169 421.105 52.3063 418.817 51.9544 416.471C51.8957 416.09 51.8371 415.708 51.7784 415.327C51.4705 413.084 51.2065 410.752 50.9866 408.421C50.9426 408.069 50.8986 407.717 50.8986 407.321C50.7226 405.062 50.5907 402.76 50.5027 400.414C50.4734 400.062 50.4587 399.695 50.4587 399.314C50.4587 398.214 50.4147 397.027 50.4147 395.883C50.4147 394.739 50.4587 393.595 50.4587 392.451C50.4587 392.07 50.4734 391.704 50.5027 391.352C50.5907 389.005 50.7226 386.703 50.8986 384.445C50.8986 384.093 50.9426 383.697 50.9866 383.345C51.1919 380.999 51.4558 378.697 51.7784 376.438C51.8371 376.057 51.8957 375.676 51.9544 375.295C52.3063 372.948 52.7169 370.661 53.1862 368.432C53.2448 368.051 53.3182 367.684 53.4061 367.332C53.934 364.913 54.5059 362.669 55.1218 360.425C55.2391 360.015 55.3564 359.634 55.4737 359.282C56.1776 356.906 56.9255 354.618 57.7613 352.419C57.908 352.038 58.0546 351.656 58.2013 351.275C59.1398 348.87 60.1515 346.568 61.2367 344.368C61.4126 343.987 61.6033 343.621 61.8086 343.269C63.0843 340.805 64.4041 338.517 65.8558 336.362C66.1198 335.981 66.3837 335.614 66.6477 335.262C68.4953 332.652 70.4457 330.35 72.4986 328.355C72.9092 327.974 73.3198 327.607 73.7304 327.256C79.0094 322.592 84.9483 319.953 91.1511 319.953C97.398 319.953 103.337 322.592 108.616 327.256C109.027 327.607 109.437 327.974 109.848 328.355C111.915 330.335 113.851 332.667 115.699 335.262C115.963 335.614 116.227 335.981 116.49 336.362C117.942 338.517 119.306 340.805 120.538 343.269C120.743 343.621 120.934 343.987 121.11 344.368C122.195 346.568 123.207 348.87 124.145 351.275C124.292 351.656 124.438 352.038 124.585 352.419C125.406 354.618 126.169 356.906 126.873 359.282C126.99 359.634 127.092 360.015 127.18 360.425C127.84 362.669 128.412 364.913 128.94 367.332C129.028 367.684 129.101 368.051 129.16 368.432C129.629 370.661 130.04 372.948 130.392 375.295C130.451 375.676 130.509 376.057 130.568 376.438C130.89 378.697 131.154 380.999 131.36 383.345C131.404 383.697 131.404 384.093 131.448 384.445C131.624 386.703 131.756 389.005 131.844 391.352C131.844 391.704 131.858 392.07 131.888 392.451C131.888 393.595 131.932 394.739 131.932 395.883Z" fill="#DE0523"/>
<path d="M105.537 395.883C105.537 397.027 105.537 398.214 105.537 399.314C105.537 399.695 105.537 400.062 105.537 400.414C105.507 402.76 105.463 405.062 105.405 407.321C105.361 407.717 105.361 408.069 105.361 408.421C105.273 410.767 105.185 413.069 105.097 415.327C105.067 415.708 105.038 416.09 105.009 416.471C104.891 418.817 104.745 421.105 104.569 423.334C104.539 423.715 104.51 424.096 104.481 424.478C104.305 426.853 104.129 429.141 103.909 431.384C103.85 431.766 103.806 432.132 103.777 432.484C103.513 434.86 103.249 437.147 102.985 439.347C102.926 439.757 102.868 440.139 102.809 440.491C102.486 442.925 102.134 445.227 101.753 447.397C101.665 447.779 101.592 448.145 101.533 448.497C101.093 450.961 100.609 453.248 100.125 455.404C100.008 455.785 99.9056 456.152 99.8176 456.504C99.1724 459.114 98.4831 461.416 97.7499 463.41C97.6326 463.792 97.5007 464.158 97.354 464.51C95.4624 469.217 93.3947 471.813 91.1511 471.813C88.9516 471.813 86.8839 469.217 84.9923 464.51C84.875 464.158 84.743 463.792 84.5964 463.41C83.8632 461.416 83.174 459.114 82.5288 456.504C82.4408 456.152 82.3381 455.785 82.2208 455.404C81.7369 453.248 81.253 450.961 80.8131 448.497C80.7544 448.145 80.6811 447.779 80.5931 447.397C80.2118 445.227 79.8599 442.925 79.5373 440.491C79.4787 440.139 79.42 439.757 79.3614 439.347C79.0681 437.147 78.8041 434.86 78.5695 432.484C78.5402 432.132 78.4962 431.766 78.4375 431.384C78.2176 429.141 78.0416 426.853 77.8656 424.478C77.8363 424.096 77.807 423.715 77.7777 423.334C77.6017 421.105 77.4551 418.817 77.3377 416.471C77.3084 416.09 77.2791 415.708 77.2497 415.327C77.1617 413.069 77.0738 410.767 76.9858 408.421C76.9858 408.069 76.9858 407.717 76.9418 407.321C76.8832 405.062 76.8391 402.76 76.8098 400.414C76.8098 400.062 76.8098 399.695 76.8098 399.314C76.8098 398.214 76.8098 397.027 76.8098 395.883C76.8098 394.739 76.8098 393.595 76.8098 392.451C76.8098 392.07 76.8098 391.704 76.8098 391.352C76.8391 389.005 76.8832 386.703 76.9418 384.445C76.9858 384.093 76.9858 383.697 76.9858 383.345C77.0738 380.999 77.1617 378.697 77.2497 376.438C77.2791 376.057 77.3084 375.676 77.3377 375.295C77.4551 372.948 77.6017 370.661 77.7777 368.432C77.807 368.051 77.8363 367.684 77.8656 367.332C78.0416 364.913 78.2176 362.669 78.4375 360.425C78.4962 360.015 78.5402 359.634 78.5695 359.282C78.8041 356.906 79.0681 354.618 79.3614 352.419C79.42 352.038 79.4787 351.656 79.5373 351.275C79.8599 348.87 80.2118 346.568 80.5931 344.368C80.6811 343.987 80.7544 343.621 80.8131 343.269C81.253 340.805 81.7369 338.517 82.2208 336.362C82.3381 335.981 82.4408 335.614 82.5288 335.262C83.174 332.652 83.8632 330.35 84.5964 328.355C84.743 327.974 84.8897 327.607 85.0363 327.256C86.884 322.592 88.9516 319.953 91.1511 319.953C93.3947 319.953 95.4624 322.592 97.31 327.256C97.4566 327.607 97.6033 327.974 97.7499 328.355C98.4831 330.35 99.1724 332.652 99.8176 335.262C99.9056 335.614 100.008 335.981 100.125 336.362C100.609 338.517 101.093 340.805 101.533 343.269C101.592 343.621 101.665 343.987 101.753 344.368C102.134 346.568 102.486 348.87 102.809 351.275C102.868 351.656 102.926 352.038 102.985 352.419C103.249 354.618 103.513 356.906 103.777 359.282C103.806 359.634 103.85 360.015 103.909 360.425C104.129 362.669 104.305 364.913 104.481 367.332C104.51 367.684 104.539 368.051 104.569 368.432C104.745 370.661 104.891 372.948 105.009 375.295C105.038 375.676 105.067 376.057 105.097 376.438C105.185 378.697 105.273 380.999 105.361 383.345C105.361 383.697 105.361 384.093 105.405 384.445C105.463 386.703 105.507 389.005 105.537 391.352C105.537 391.704 105.537 392.07 105.537 392.451C105.537 393.595 105.537 394.739 105.537 395.883Z" fill="#FF0A2C"/>
<path d="M116.095 321.185C116.095 322.988 66.2517 322.988 66.2517 321.185V307.371C66.2517 303.94 116.095 303.94 116.095 307.371V321.185Z" fill="url(#paint3_linear_22_6661)"/>
<defs>
<linearGradient id="paint0_linear_22_6661" x1="16884.9" y1="-347.161" x2="16884.9" y2="245.783" gradientUnits="userSpaceOnUse">
<stop stop-color="#E9C156"/>
<stop offset="0.15" stop-color="#85521B"/>
<stop offset="0.334" stop-color="#E1AB39"/>
<stop offset="0.52" stop-color="#FFFFAA"/>
<stop offset="0.657" stop-color="#E1AB39"/>
<stop offset="0.85" stop-color="#7C4918"/>
<stop offset="1" stop-color="#E9C156"/>
</linearGradient>
<linearGradient id="paint1_linear_22_6661" x1="63.0505" y1="467.164" x2="119.292" y2="467.164" gradientUnits="userSpaceOnUse">
<stop stop-color="#E9C156"/>
<stop offset="0.15" stop-color="#85521B"/>
<stop offset="0.334" stop-color="#E1AB39"/>
<stop offset="0.52" stop-color="#FFFFAA"/>
<stop offset="0.657" stop-color="#E1AB39"/>
<stop offset="0.85" stop-color="#7C4918"/>
<stop offset="1" stop-color="#E9C156"/>
</linearGradient>
<linearGradient id="paint2_linear_22_6661" x1="112.031" y1="257.017" x2="112.031" y2="313.363" gradientUnits="userSpaceOnUse">
<stop stop-color="#E9C156"/>
<stop offset="0.15" stop-color="#85521B"/>
<stop offset="0.334" stop-color="#E1AB39"/>
<stop offset="0.52" stop-color="#FFFFAA"/>
<stop offset="0.657" stop-color="#E1AB39"/>
<stop offset="0.85" stop-color="#7C4918"/>
<stop offset="1" stop-color="#E9C156"/>
</linearGradient>
<linearGradient id="paint3_linear_22_6661" x1="66.2583" y1="304.814" x2="116.102" y2="304.814" gradientUnits="userSpaceOnUse">
<stop stop-color="#E9C156"/>
<stop offset="0.15" stop-color="#85521B"/>
<stop offset="0.334" stop-color="#E1AB39"/>
<stop offset="0.52" stop-color="#FFFFAA"/>
<stop offset="0.657" stop-color="#E1AB39"/>
<stop offset="0.85" stop-color="#7C4918"/>
<stop offset="1" stop-color="#E9C156"/>
</linearGradient>
</defs>
</svg>
